<svg fill="none" height="128" viewBox="0 0 128 128" width="128" xmlns="http://www.w3.org/2000/svg"><path d="m96.067373 36.926221-.02719-.01607-.03448-.01844-.174922-.09265-.661569-.35222c-.56935-.30324-1.382574-.735749-2.356143-1.25355-1.946578-1.035335-4.533699-2.410781-7.098954-3.772539-2.144486-1.133261-3.349042-3.354244-3.116653-5.649989l.00084-.0037c.240519-2.296532 1.910417-4.237952 4.260101-4.958449 5.339634-1.636846 11.165911-1.225134 16.175047 1.176962 5.00268 2.398935 8.80472 6.548964 10.54805 11.563748l.80932 2.327071c.79723 2.293639-.0193 4.798134-2.05871 6.278088-2.03683 1.478638-4.81571 1.598676-6.98992.311153l-.005-.0037c-2.40656-1.443359-4.73635-2.835125-6.465399-3.865986-.864516-.515166-1.578224-.940568-2.076363-1.236717l-.576588-.343009z" fill="#fff" stroke="#fff" stroke-width="13.1432"/><path d="m51.860384 11.862306h-.000842c-9.406029-5.5983948-20.556801-5.538901-29.327055-1.715821-8.776699 3.825715-15.6432615 11.675892-15.6432615 21.877094v64.522502c0 10.201989 6.8674045 18.047949 15.6441045 21.871839 8.736892 3.80597 19.834684 3.87862 29.218007-1.64581l57.206233-30.142667.028-.015.0263-.0158.0746-.04422c16.41806-9.753691 16.42031-30.564912.007-40.322287l-.002-.000788-.00085-.000526-.004-.0029-57.211838-34.356404-.0039-.0024z" fill="#fff" stroke="#fff" stroke-miterlimit="2.2041" stroke-width="13.1432"/><g clip-rule="evenodd" fill="#2f2f2f" fill-rule="evenodd"><path d="m23.040438 11.167081c8.434421-3.6767186 19.146766-3.727525 28.174076 1.645269l.01149.0068 57.215766 34.359036c.002.0016.005.0029.007.0042 15.66906 9.315124 15.66652 29.109438-.007 38.421141l-.0746.04502-57.232317 30.156103c-9.01021 5.31673-19.68387 5.25591-28.093904 1.59263-8.439986-3.67697-14.9488554-11.17018-14.9488554-20.851214v-64.522487c0-9.67998 6.5083084-17.177675 14.9483374-20.856498zm2.827358 5.720011c-6.557365 2.858296-11.060227 8.379821-11.060227 15.136487v64.522502c0 6.756399 4.502022 12.273469 11.059388 15.129909 6.563251 2.85961 14.836207 2.86408 21.75491-1.24672l.07486-.0443 57.227793-30.153726c11.43587-6.853801 11.41205-20.900462-.0722-27.723462l-.0143-.0085-57.218276-34.360352-.0057-.0035c-6.916487-4.113477-15.185517-4.107948-21.746248-1.248338z" stroke-width="2.7165"/><path d="m41.400052 49.484504c6.263023 0 11.324013 4.768915 11.324013 10.634237 0 10.396266-8.954146 18.805835-20.024184 18.789251h-22.8854626v-29.423488zm-3.054703 18.385698c-3.645628.4691-7.003924-1.924308-7.503463-5.347522-.499539-3.424006 2.048897-6.577661 5.694805-7.04676 3.645628-.469625 7.003924 1.924572 7.503462 5.348313.49954 3.423216-2.049177 6.57687-5.694804 7.045969z" stroke-width="2.7165"/><path d="m84.652254 49.484504c-6.245923 0-11.307193 4.768915-11.307193 10.634237 0 10.396266 8.954986 18.805835 19.990825 18.789251h16.994704c1.84511 0 3.60555-.682852 4.90878-1.906934 1.30406-1.208287 2.03124-2.861717 2.03124-4.593857v-12.446931c0-2.766424-1.16757-5.436763-3.26636-7.407666-2.08253-1.971165-4.92643-3.0681-7.88806-3.0681zm1.448161 17.868425c3.645909.4691 7.003641-1.923518 7.503462-5.34726.502623-3.445065-2.045813-6.599507-5.694804-7.046759-3.64591-.4691-7.003643 1.924309-7.503463 5.348314-.49954 3.423742 2.049176 6.576869 5.694805 7.045705z" stroke-width="2.7165"/><path d="m86.306734 30.439645c-1.722598-.909768-2.701213-2.700088-2.511712-4.564112.193984-1.848757 1.537302-3.414265 3.435664-3.996559 5.03632-1.543921 10.531254-1.154848 15.254164 1.10957 4.72208 2.264682 8.30912 6.181215 9.95324 10.911169l.80929 2.32707c.64055 1.843757-.0155 3.850724-1.65055 5.037686-1.6343 1.186701-3.86232 1.284364-5.61128.248503-4.81429-2.888306-9.324727-5.568911-9.324727-5.568911s-5.222458-2.780112-10.354089-5.504416z" stroke-width="2.7165"/><path d="m45.396087 30.448595c1.728204-.925037 2.722797-2.710353 2.517599-4.579118-.205197-1.869026-1.548237-3.43427-3.447157-4.016564-5.036602-1.543922-10.499017-1.145108-15.216048 1.104306-4.717312 2.249149-8.288373 6.170947-9.927435 10.885634l-.81939 2.357344c-.640822 1.843755.01486 3.850721 1.649994 5.037423 1.635137 1.186963 3.862319 1.284627 5.611268.248765 4.814584-2.888305 9.325297-5.568649 9.325297-5.568649s5.190499-2.739836 10.305872-5.469141z" stroke-width="2.7165"/><path d="m67.072225 77.689966c0-.631257-.268551-1.230927-.73305-1.675018-.474589-.443564-1.115412-.692855-1.786791-.692855-1.642426 0-3.790837 0-5.432421 0-.67194 0-1.311922.249291-1.786792.692855-.475711.444091-.733892 1.043761-.733892 1.675018 0 .623623.268831 1.230926.733892 1.67528.47487.443565 1.114852.692593 1.786792.692593h5.432421c.671379 0 1.312202-.249028 1.786791-.692593.464499-.444354.73305-1.044023.73305-1.67528z" stroke="#2f2f2f" stroke-linecap="round" stroke-linejoin="round" stroke-miterlimit="1.5" stroke-width="1.79675"/><path d="m47.697555 85.104475s1.578512 1.723191 4.062472 2.746681c1.514317.624412 3.333907.992953 5.32926.692066 2.523767-.383545 4.342517-1.452313 5.616875-2.851978 1.369948-1.512331 2.099634-3.454014 2.203915-5.500467.07933-1.588148-1.22614-2.942796-2.917622-3.018084-1.690642-.07582-3.132354 1.151426-3.212526 2.746943-.04009.744716-.240801 1.482322-.745105 2.031711-.424973.466205-1.073926.767091-1.915181.895291-.705579.1053-1.346402-.05239-1.883785-.278249-1.153258-.474363-1.907052-1.257249-1.907052-1.257249-1.113731-1.196177-3.052739-1.323851-4.334948-.277721-1.281926 1.045602-1.410034 2.873827-.296303 4.071056z" stroke-width="2.7165"/><path d="m71.356435 81.31114s-.745105.782886-1.907052 1.257249c-.536543.218229-1.178207.383545-1.883224.278249-.841256-.1282-1.490769-.429086-1.914902-.895291-.505425-.55676-.705016-1.286995-.745104-2.031711-.08017-1.588145-1.523006-2.822757-3.213646-2.746943-1.690362.07503-2.996957 1.429936-2.916503 3.018084.104002 2.046453.825837 3.988136 2.203637 5.500467 1.266227 1.399665 3.093105 2.468433 5.617154 2.851978 1.995073.300887 3.814102-.06766 5.328979-.692066 2.491811-1.023754 4.062752-2.746943 4.062752-2.746943 1.114013-1.196967.985623-3.025192-.296584-4.070794-1.282487-1.04613-3.221496-.918456-4.335507.277721z" stroke-width="2.7165"/></g></svg>